<svg width="106" height="48" viewBox="0 0 106 48" fill="none" xmlns="http://www.w3.org/2000/svg">
<path fill-rule="evenodd" clip-rule="evenodd" d="M19.5665 32.124C23.8493 32.124 27.5278 29.5135 29.1247 25.7834H32.8882C31.13 31.5217 25.8307 35.6905 19.5665 35.6905C13.3023 35.6905 8.00301 31.5217 6.24476 25.7834H10.0083C11.6052 29.5135 15.2837 32.124 19.5665 32.124ZM19.5665 11.1209C15.2837 11.1209 11.6052 13.7313 10.0083 17.4614H6.24476C8.00301 11.7232 13.3023 7.55432 19.5665 7.55432C25.8307 7.55432 31.13 11.7232 32.8882 17.4614H32.8899C33.4214 19.3222 33.5081 20.7623 33.5081 21.4243C33.5081 22.4801 33.4214 23.2096 33.4214 23.2096H0.42572L3.17477 19.7367H18.3553H25.9919H29.8079C29.8079 19.7367 29.5809 18.4522 29.1253 17.4614H29.1247C27.5278 13.7313 23.8493 11.1209 19.5665 11.1209Z" fill="#65FEB7"/>
<path fill-rule="evenodd" clip-rule="evenodd" d="M60.5122 21.028V30.9351V32.124V35.6905H64.0467V21.028C64.0467 13.5867 58.0686 7.55432 50.6942 7.55432C43.3197 7.55432 37.3416 13.5867 37.3416 21.028V35.6905H40.8761V32.124V30.9351V21.028C40.8761 15.5565 45.2718 11.1209 50.6942 11.1209C56.1165 11.1209 60.5122 15.5565 60.5122 21.028Z" fill="white"/>
<path d="M93.8569 21.6224C93.8569 28.3045 88.4934 33.6905 81.9153 33.6905C75.3371 33.6905 69.9736 28.3045 69.9736 21.6224C69.9736 14.9403 75.3371 9.55432 81.9153 9.55432C88.4934 9.55432 93.8569 14.9403 93.8569 21.6224Z" stroke="white" stroke-width="4"/>
<path fill-rule="evenodd" clip-rule="evenodd" d="M68.5938 37.6718C70.352 43.4101 75.6513 47.579 81.9155 47.579C89.6152 47.579 95.8571 41.2804 95.8571 33.5108V8.74304H92.3226V12.3096V24.9907V33.5108C92.3226 39.3107 87.6632 44.0124 81.9155 44.0124C77.6327 44.0124 73.9542 41.4019 72.3573 37.6718H68.5938Z" fill="white"/>
<rect x="100.962" y="8.74304" width="3.5344" height="26.9474" fill="white"/>
<rect x="100.177" y="0.421051" width="5.10526" height="5.1517" rx="2.55263" fill="white"/>
</svg>
